<?xml version="1.0" encoding="utf-8"?>
<!-- Generator: Adobe Illustrator 23.0.4, SVG Export Plug-In . SVG Version: 6.00 Build 0)  -->
<svg version="1.1" id="Layer_1" xmlns="http://www.w3.org/2000/svg" xmlns:xlink="http://www.w3.org/1999/xlink" x="0px" y="0px"
	 viewBox="0 0 463 463" style="enable-background:new 0 0 463 463;" xml:space="preserve">
<style type="text/css">
	.st0{fill:#F3F3F3;}
	.st1{fill:url(#SVGID_1_);}
	.st2{fill:url(#SVGID_2_);}
	.st3{fill:url(#SVGID_3_);}
	.st4{fill:url(#SVGID_4_);}
	.st5{fill:url(#SVGID_5_);}
</style>
<path class="st0" d="M285.2,359.9l-165,0.7c-18.6,0.1-33.7-14.9-33.8-33.5L84.9,26.6c0-4,0.7-8,2.1-11.8
	c-13.3,4.9-22.1,17.6-22,31.8L66.4,347c0.1,18.6,15.2,33.6,33.8,33.5l184.9-0.8L285.2,359.9z"/>
<g>
	<linearGradient id="SVGID_1_" gradientUnits="userSpaceOnUse" x1="52.6575" y1="196.6803" x2="353.8391" y2="196.6803">
		<stop  offset="0" style="stop-color:#EC6333"/>
		<stop  offset="1" style="stop-color:#F19633"/>
	</linearGradient>
	<path class="st1" d="M100.7,393.4h0.2l188.6-0.8l-0.1-12l-188.6,0.8h-0.2c-19.1,0-34.5-15.4-34.6-34.5L64.6,47.5
		C64.6,28.4,80,12.8,99.1,12.7L237.7,12l0.3,56.3c0.2,25.7,21,46.4,46.6,46.4h0.2l56.3-0.3l0.8,148l12-0.1L353,108.1
		c0-1.6-0.6-3.1-1.8-4.2L248.1,1.9c-1-1-2.3-1.6-3.6-1.7L242.3,0c-0.2,0-0.4,0-0.6,0L99.1,0.7C73.3,0.8,52.6,21.8,52.7,47.5
		L54.1,347C54.2,372.6,75.1,393.3,100.7,393.4z M284.8,102.7c-19.1,0.1-34.7-15.3-34.8-34.5l-0.2-47.8l83,82.1L284.8,102.7z"/>
	<linearGradient id="SVGID_2_" gradientUnits="userSpaceOnUse" x1="191.4002" y1="227.1554" x2="223.7" y2="227.1554">
		<stop  offset="0" style="stop-color:#EC6333"/>
		<stop  offset="1" style="stop-color:#F19633"/>
	</linearGradient>
	<path class="st2" d="M197.4,221.2c-3.3,0-6,2.7-6,6c0,3.3,2.7,6,6,6h20.3c3.3,0,6-2.7,6-6c0-3.3-2.7-6-6-6H197.4z"/>
	<linearGradient id="SVGID_3_" gradientUnits="userSpaceOnUse" x1="113.0921" y1="176.354" x2="293.7362" y2="176.354">
		<stop  offset="0" style="stop-color:#EC6333"/>
		<stop  offset="1" style="stop-color:#F19633"/>
	</linearGradient>
	<path class="st3" d="M293.7,176.4c0-3.3-2.7-6-6-6H119.1c-3.3,0-6,2.7-6,6c0,3.3,2.7,6,6,6h168.7
		C291.1,182.3,293.7,179.7,293.7,176.4z"/>
	<linearGradient id="SVGID_4_" gradientUnits="userSpaceOnUse" x1="113.0921" y1="227.1554" x2="177.6488" y2="227.1554">
		<stop  offset="0" style="stop-color:#EC6333"/>
		<stop  offset="1" style="stop-color:#F19633"/>
	</linearGradient>
	<path class="st4" d="M119.1,221.2c-3.3,0-6,2.7-6,6c0,3.3,2.7,6,6,6h52.6c3.3,0,6-2.7,6-6c0-3.3-2.7-6-6-6H119.1z"/>
</g>
<linearGradient id="SVGID_5_" gradientUnits="userSpaceOnUse" x1="284.0602" y1="359.9369" x2="411.2197" y2="359.9369">
	<stop  offset="0" style="stop-color:#EC6333"/>
	<stop  offset="1" style="stop-color:#F19633"/>
</linearGradient>
<path class="st5" d="M289,462.1c3,1.5,6.6,1.1,9.2-1c0.1-0.1,0.2-0.2,0.3-0.2l51.5-46.3l46.7,46.2c0.2,0.2,0.3,0.3,0.5,0.4
	c2.6,2.1,6.2,2.4,9.2,1c3-1.5,4.9-4.5,4.9-7.8V282.8c0-14.3-11.6-25.9-26-26H310c-14.3,0-25.9,11.6-26,26v171.5
	C284,457.6,286,460.7,289,462.1z M296,282.8c0-7.7,6.3-14,14-14h75.2c7.7,0,14,6.3,14,14v163.6L354.3,402c-2.3-2.2-5.9-2.3-8.2-0.2
	l-50.1,45L296,282.8z"/>
</svg>
