<?xml version="1.0" encoding="utf-8"?>
<!-- Generator: Adobe Illustrator 23.0.4, SVG Export Plug-In . SVG Version: 6.00 Build 0)  -->
<svg version="1.1" id="Layer_1" xmlns="http://www.w3.org/2000/svg" xmlns:xlink="http://www.w3.org/1999/xlink" x="0px" y="0px"
	 viewBox="0 0 512 512" style="enable-background:new 0 0 512 512;" xml:space="preserve">
<style type="text/css">
	.st0{fill:#F3F3F3;}
	.st1{fill:url(#SVGID_1_);}
	.st2{fill:url(#SVGID_2_);}
	.st3{fill:url(#SVGID_3_);}
	.st4{fill:url(#SVGID_4_);}
	.st5{fill:url(#SVGID_5_);}
	.st6{fill:url(#SVGID_6_);}
</style>
<title>certificate</title>
<path class="st0" d="M409,332.7c-24.6-0.1-44.5-20.2-44.4-44.8c0-6.9,1.6-13.6,4.7-19.7c-22.1,10.8-31.3,37.4-20.5,59.5
	s37.4,31.3,59.5,20.5c8.8-4.3,15.9-11.4,20.3-20.1C422.6,331.1,415.8,332.7,409,332.7z"/>
<path class="st0" d="M71,406c-7.2-0.1-13-6-13-13.2V161h-7c-7.1-0.1-12.9,5.6-13,12.6v0.1v239c0,7.2,5.8,13.1,13,13.2h244.4l7.8-20
	L71,406L71,406z"/>
<linearGradient id="SVGID_1_" gradientUnits="userSpaceOnUse" x1="24" y1="293.4497" x2="431" y2="293.4497">
	<stop  offset="0" style="stop-color:#F24F5F"/>
	<stop  offset="1" style="stop-color:#A4086C"/>
</linearGradient>
<path class="st1" d="M51,440h248c3.9,0,7-3.1,7-7s-3.1-7-7-7H51c-7.2-0.1-13-6-13-13.2v-239c0-7.1,5.8-12.8,12.9-12.8H51h353
	c7.1-0.1,12.9,5.6,13,12.6v0.1V231c0,3.9,3.1,7,7,7s7-3.1,7-7v-57.3c0-14.8-12.1-26.8-26.9-26.8H404H51c-14.8-0.1-26.9,11.9-27,26.7
	v0.1v239C24,427.8,36.1,439.9,51,440z"/>
<linearGradient id="SVGID_2_" gradientUnits="userSpaceOnUse" x1="85" y1="234" x2="292" y2="234" gradientTransform="matrix(1 0 0 -1 0 514)">
	<stop  offset="0" style="stop-color:#F24F5F"/>
	<stop  offset="1" style="stop-color:#A4086C"/>
</linearGradient>
<path class="st2" d="M285,273H92c-3.9,0-7,3.1-7,7s3.1,7,7,7h193c3.9,0,7-3.1,7-7S288.9,273,285,273z"/>
<linearGradient id="SVGID_3_" gradientUnits="userSpaceOnUse" x1="85" y1="162" x2="292" y2="162" gradientTransform="matrix(1 0 0 -1 0 514)">
	<stop  offset="0" style="stop-color:#F24F5F"/>
	<stop  offset="1" style="stop-color:#A4086C"/>
</linearGradient>
<path class="st3" d="M92,359h193c3.9,0,7-3.1,7-7s-3.1-7-7-7H92c-3.9,0-7,3.1-7,7S88.1,359,92,359z"/>
<linearGradient id="SVGID_4_" gradientUnits="userSpaceOnUse" x1="85" y1="199" x2="232" y2="199" gradientTransform="matrix(1 0 0 -1 0 514)">
	<stop  offset="0" style="stop-color:#F24F5F"/>
	<stop  offset="1" style="stop-color:#A4086C"/>
</linearGradient>
<path class="st4" d="M92,322h133c3.9,0,7-3.1,7-7s-3.1-7-7-7H92c-3.9,0-7,3.1-7,7S88.1,322,92,322z"/>
<linearGradient id="SVGID_5_" gradientUnits="userSpaceOnUse" x1="338" y1="302.45" x2="440.3003" y2="302.45">
	<stop  offset="0" style="stop-color:#F24F5F"/>
	<stop  offset="1" style="stop-color:#A4086C"/>
</linearGradient>
<path class="st5" d="M389,353.6c28.2,0.1,51.2-22.7,51.3-51c0.1-28.2-22.7-51.2-51-51.3c-28.2-0.1-51.2,22.7-51.3,51
	c0,0.1,0,0.1,0,0.2C338,330.7,360.8,353.5,389,353.6z M389,263.6c21.5-0.1,39,17.2,39.1,38.7s-17.2,39-38.7,39.1s-39-17.2-39.1-38.7
	c0-0.1,0-0.1,0-0.2C350.2,281.1,367.6,263.6,389,263.6z"/>
<linearGradient id="SVGID_6_" gradientUnits="userSpaceOnUse" x1="294.0882" y1="346.2644" x2="483.9287" y2="346.2644">
	<stop  offset="0" style="stop-color:#F24F5F"/>
	<stop  offset="1" style="stop-color:#A4086C"/>
</linearGradient>
<path class="st6" d="M449.9,352c10.6-6,15.1-19,10.5-30.3c10.6-8.3,12.4-23.7,4.1-34.3c-1.2-1.5-2.6-2.9-4.1-4.1
	c5-12.5-1-26.7-13.5-31.7c-1.8-0.7-3.7-1.2-5.6-1.5c-1.9-13.3-14.1-22.6-27.4-20.7c-2,0.3-3.9,0.8-5.7,1.5
	c-8.3-10.6-23.5-12.5-34.1-4.2c-1.6,1.2-3,2.6-4.2,4.2c-12.5-5-26.6,1-31.6,13.5c-0.7,1.8-1.2,3.8-1.5,5.7
	c-13.3,1.9-22.6,14.3-20.6,27.6c0.3,1.9,0.8,3.8,1.5,5.6c-10.6,8.3-12.4,23.7-4.1,34.3c1.2,1.5,2.6,2.9,4.1,4.1
	c-4.6,11.3-0.1,24.2,10.5,30.3l-33.7,86.7c-1.2,3.1,0.3,6.7,3.5,7.9c1.3,0.5,2.8,0.6,4.2,0.1L337,435l19,32.9
	c1.1,1.9,3.1,3.1,5.3,3.1c0.2,0,0.3,0,0.5,0c2.3-0.2,4.4-1.7,5.2-3.9l22.1-56.8l22.1,56.8c0.9,2.2,2.9,3.7,5.2,3.9
	c0.2,0,0.3,0,0.5,0c2.2,0,4.2-1.2,5.3-3.1L441,435l34.9,11.7c3.2,1.1,6.7-0.6,7.7-3.8c0.5-1.4,0.4-2.8-0.1-4.2L449.9,352z
	 M331.8,317.9c-0.5-1.9-1.9-3.4-3.7-4.1c-6.2-2.5-9.3-9.6-6.8-15.8c1.2-3.1,3.7-5.6,6.8-6.8c3.1-1.2,4.7-4.8,3.4-7.9
	c-0.2-0.6-0.5-1.1-0.9-1.6c-3.1-3.9-3.5-9.3-1-13.6c2.4-4.3,7.3-6.7,12.2-5.9c3.3,0.5,6.4-1.8,7-5.1c0.1-0.6,0.1-1.2,0-1.8
	c-0.8-4.9,1.6-9.8,5.9-12.3s9.7-2.1,13.5,1c2.6,2.1,6.5,1.7,8.6-1c0.4-0.5,0.7-1,0.9-1.6c2.4-6.2,9.4-9.3,15.6-6.9
	c3.2,1.2,5.6,3.7,6.9,6.9c1.2,3.1,4.8,4.7,7.9,3.5c0.6-0.2,1.1-0.5,1.6-0.9c3.9-3.1,9.2-3.5,13.5-1s6.7,7.4,5.9,12.3
	c-0.5,3.3,1.8,6.4,5.1,6.9c0.6,0.1,1.2,0.1,1.8,0c4.9-0.8,9.8,1.6,12.2,5.9c2.5,4.3,2.1,9.7-1,13.6c-2.1,2.6-1.7,6.5,1,8.6
	c0.5,0.4,1,0.7,1.6,0.9c6.2,2.5,9.3,9.6,6.8,15.8c-1.2,3.1-3.7,5.6-6.8,6.8c-3.1,1.2-4.7,4.8-3.4,7.9c0.2,0.6,0.5,1.1,0.9,1.6
	c3.1,3.9,3.5,9.3,1,13.6c-1.7,2.9-4.5,5-7.7,5.7c-1.5,0.3-3,0.4-4.5,0.2c-3.3-0.5-6.5,1.8-7,5.1c-0.1,0.6-0.1,1.2,0,1.8
	c0.8,4.9-1.6,9.8-5.9,12.3s-9.7,2.1-13.5-1c-2.6-2.1-6.5-1.7-8.6,0.9c-0.4,0.5-0.7,1-0.9,1.6c-1.8,4.6-6.3,7.7-11.2,7.7
	c-1.5,0-3-0.3-4.4-0.8c-3.1-1.2-5.6-3.7-6.8-6.8c-1.2-3.1-4.8-4.7-7.9-3.5c-0.6,0.2-1.1,0.5-1.6,0.9c-3.9,3.1-9.2,3.5-13.5,1
	s-6.7-7.4-5.9-12.3c0.5-3.3-1.8-6.4-5.1-6.9c-0.6-0.1-1.2-0.1-1.8,0c-6.6,1-12.8-3.6-13.7-10.3c-0.5-3.3,0.4-6.7,2.5-9.3
	C331.9,321.7,332.3,319.7,331.8,317.9L331.8,317.9z M360.1,450.7L345,424.5c-1.5-2.5-4.5-3.7-7.2-2.7l-27.3,9.2l27.5-70.8
	c4.7,12.6,18.8,18.9,31.4,14.2c0.2-0.1,0.3-0.1,0.5-0.2c2.1,2.6,4.7,4.8,7.6,6.4l4.9,12.7L360.1,450.7z M440.2,421.8
	c-2.8-0.9-5.8,0.2-7.2,2.7l-15.1,26.2l-26.2-67.4c6.5-0.7,12.5-4,16.5-9.2c12.5,5,26.6-1.1,31.6-13.5c0.1-0.2,0.1-0.3,0.2-0.5
	l27.5,70.8L440.2,421.8z"/>
</svg>
