<svg xmlns="http://www.w3.org/2000/svg" width="52" height="43" fill="none" viewBox="0 0 52 43">
    <path fill="url(#a)" d="M21.43 22.528h9.14v2.816h-9.14v-2.816z"/>
    <path fill="url(#b)" d="M42.187 25.344h-8.57v1.408c0 .778-.681 1.408-1.523 1.408H19.906c-.842 0-1.523-.63-1.523-1.408v-1.408h-8.57c-1.97 0-3.712-1.16-4.335-2.887L0 7.267v30.75c0 2.328 2.05 4.223 4.57 4.223h42.86c2.52 0 4.57-1.895 4.57-4.224V7.267l-5.478 15.19c-.623 1.727-2.365 2.887-4.335 2.887z"/>
    <path fill="url(#c)" d="M32.094 0H19.906c-2.52 0-4.57 1.895-4.57 4.224v1.408H2.62l5.746 15.934c.208.576.79.962 1.446.962h8.57V21.12c0-.778.681-1.408 1.523-1.408h12.188c.842 0 1.523.63 1.523 1.408v1.408h8.57c.656 0 1.238-.386 1.446-.962l5.746-15.934H36.664V4.224c0-2.33-2.05-4.224-4.57-4.224zM18.383 5.632V4.224c0-.777.683-1.408 1.523-1.408h12.188c.84 0 1.523.631 1.523 1.408v1.408H18.383z"/>
    <defs>
        <linearGradient id="a" x1="21.43" x2="30.57" y1="25.344" y2="25.344" gradientUnits="userSpaceOnUse">
            <stop stop-color="#FA8733"/>
            <stop offset="1" stop-color="#F7C332"/>
        </linearGradient>
        <linearGradient id="b" x2="52" y1="42.24" y2="42.24" gradientUnits="userSpaceOnUse">
            <stop stop-color="#FA8733"/>
            <stop offset="1" stop-color="#F7C332"/>
        </linearGradient>
        <linearGradient id="c" x1="2.621" x2="49.379" y1="22.528" y2="22.528" gradientUnits="userSpaceOnUse">
            <stop stop-color="#FA8733"/>
            <stop offset="1" stop-color="#F7C332"/>
        </linearGradient>
    </defs>
</svg>
