<?xml version="1.0" encoding="utf-8"?>
<!-- Generator: Adobe Illustrator 23.0.4, SVG Export Plug-In . SVG Version: 6.00 Build 0)  -->
<svg version="1.1" id="Layer_1" xmlns="http://www.w3.org/2000/svg" xmlns:xlink="http://www.w3.org/1999/xlink" x="0px" y="0px"
	 viewBox="0 0 512 512" style="enable-background:new 0 0 512 512;" xml:space="preserve">
<style type="text/css">
	.st0{fill:#D4E1F4;}
	.st1{fill:#F3F3F3;}
	.st2{fill:url(#SVGID_1_);}
	.st3{fill:url(#SVGID_2_);}
	.st4{fill:url(#SVGID_3_);}
</style>
<title>Tick mark  Man</title>
<path class="st0" d="M206.2,306.9c2.3,0,4.5-0.1,6.8-0.2v-3.4c-5.5,1.6-11.1,2.6-16.8,3.1C199.5,306.8,202.8,306.9,206.2,306.9z"/>
<path class="st1" d="M180,333.4v-26.6c-6.8-0.4-13.5-1.5-20-3.3v29.9l26.5,17.9l10-6.7L180,333.4z"/>
<path class="st1" d="M135.1,51.7c15.9-17.2,37.7-28,61-30.4c-3.3-0.3-6.7-0.5-10-0.5c-53.7,0-97.2,43.5-97.2,97.2
	c0,2.2,0.1,4.5,0.2,6.7l2.2,32.2c0,0.7,0.4,1.2,0.9,1.6c2.1,0.8,4.5,1.7,6.6,2.5l2.9-36.1c0.3-4.1,3.2-7.6,7.1-8.8
	C109.3,92.1,118.6,69.2,135.1,51.7z"/>
<path class="st0" d="M132.8,115.8c-2.2-0.2-4.5,0.3-6.4,1.5l2.4,0.3c6.4,0.7,12.9,0.7,19.4-0.1L132.8,115.8z"/>
<path class="st1" d="M235.8,93.3c-3.6-1.5-7.5-2.3-11.4-2.5l-6.3-0.3c-16.9,22.1-42.1,36.2-69.8,39
	C181.7,132.8,214.5,119.2,235.8,93.3z"/>
<path class="st1" d="M127.4,173.6c1.7-1,2.8-2.8,2.9-4.8l3.1-38.9c-2-0.1-3.9-0.2-5.9-0.4l-14-1.5l-3.3,40.9c0,0.6-0.2,1.1-0.4,1.7
	C123.8,175.8,125.3,174.9,127.4,173.6z"/>
<path class="st1" d="M115,203.4v-0.1c-0.1-3-2.3-5.4-5.2-5.9c-10.4-1.9-17.2-11.8-15.4-22.1c0.1-0.3,0.1-0.6,0.2-0.9
	c0.2-0.6,0.4-1.3,0.6-1.9c-2.1-0.7-4.7-1.7-7.7-2.9c-0.2-0.1-0.3-0.1-0.5-0.2c-1.8-0.9-3.3-2.2-4.6-3.8c-3.9,1.4-6.9,4.8-7.8,8.8
	c-2.4,10.2,4,20.5,14.3,22.8c0.3,0.1,0.6,0.1,0.9,0.2c2.9,0.5,5.1,3,5.2,5.9v0.1c0,50.5,41,91.5,91.5,91.5c3.3,0,6.7-0.2,10-0.5
	C150.1,289.2,115.1,250.1,115,203.4z"/>
<path class="st1" d="M91.9,368.9c-2.9-3.1-6.2-5.7-9.9-7.9c-12.8,7.4-22,20.9-23,35.7V464h20v-67.2
	C79.8,386.3,84.4,376.4,91.9,368.9z"/>
<polygon class="st0" points="168.4,377.8 168.4,377.7 168.4,377.7 "/>
<path class="st1" d="M136.8,396.1c-1.4-15.8-9.1-30.3-21.4-40.2l13-4.7l-4.3-5.7l-28.7,10.4c12.3,10,20,24.5,21.4,40.2
	c0,0.2,0.2,0.3,0.2,0.5V464h20v-67.4C137,396.4,136.8,396.2,136.8,396.1z"/>
<path class="st1" d="M308.9,409.1c0.1-41.4,30.9-76.3,72-81.4c-44.9-5.6-85.9,26.3-91.5,71.2c-5.6,44.9,26.3,85.9,71.2,91.5
	c6.7,0.8,13.6,0.8,20.3,0C339.8,485.4,308.9,450.5,308.9,409.1z"/>
<linearGradient id="SVGID_1_" gradientUnits="userSpaceOnUse" x1="324.8208" y1="409.0984" x2="416.9291" y2="409.0984">
	<stop  offset="0" style="stop-color:#EC6333"/>
	<stop  offset="1" style="stop-color:#F19633"/>
</linearGradient>
<path class="st2" d="M406.7,379.7l-47.3,46.1l-24.4-23.8c-2.3-2.3-6.1-2.3-8.5,0c-2.3,2.3-2.3,6.1,0,8.5c0,0,0.1,0.1,0.1,0.1
	l28.6,27.9c2.3,2.3,6.1,2.3,8.4,0l51.4-50.2c2.4-2.3,2.5-6.1,0.2-8.5c-2.3-2.4-6.1-2.5-8.5-0.2C406.8,379.6,406.7,379.7,406.7,379.7
	L406.7,379.7z"/>
<linearGradient id="SVGID_2_" gradientUnits="userSpaceOnUse" x1="47" y1="254.9348" x2="310.0211" y2="254.9348">
	<stop  offset="0" style="stop-color:#EC6333"/>
	<stop  offset="1" style="stop-color:#F19633"/>
</linearGradient>
<path class="st3" d="M53.1,476h100.5l29.8,23.7c2.2,1.7,5.3,1.7,7.5,0l29.8-23.8H306v-12h-38v-67.2c2-14.8,10-28.2,22.8-35.7
	c1.5,0.9,3,1.8,4.4,2.8l7.2-9.6c-2.7-2-5.6-3.8-8.7-5.4c-0.2-0.1-0.6-0.2-0.8-0.3L252,334v-15.6c0.1-2.2-1.1-4.2-3-5.3
	c-0.1-0.1-0.3-0.2-0.5-0.2l-0.1,0l-23.5-9.6v-4c37.6-15.1,62.8-50.9,64.4-91.4c14.9-5.3,23.5-21,19.8-36.4
	c-2-8.3-8.1-14.9-16.1-17.6l2-28.4c4.1-60.1-41.2-112.3-101.4-116.4c-32.8-2.3-64.9,10.4-87.3,34.4c-20.8,22-31.3,51.8-29.1,82
	l2,28.3c-8.1,2.6-14.2,9.3-16.2,17.6c-3.8,15.5,4.9,31.3,19.9,36.4c1.8,40.7,27.3,76.5,65.1,91.6v3.6l-23.7,9.7l-0.1,0.1
	c-0.2,0.1-0.6,0.2-0.8,0.3c-2,1-3.3,3-3.4,5.3V334l-40.5,14.7c-0.2,0.1-0.4,0.2-0.6,0.3c-18.1,9.1-30.1,26.9-31.9,47.1
	c0,0.2,0,0.3,0,0.5v73.2C47,473.2,49.7,475.9,53.1,476z M116.8,396.1c-1.4-15.8-9.1-30.3-21.4-40.2l28.7-10.4l27.4,36.6
	c1.9,2.5,5.5,3.2,8.1,1.4l8.7-5.7l-16,86.3H117v-67.4C117,396.4,116.8,396.2,116.8,396.1L116.8,396.1z M132,329.6l43.4,28.8
	l-17.9,11.9L132,336.4V329.6z M187.2,487.3l-23.4-18.8l18.6-100.2l4-2.7l5.9,3.9l18.4,98.9L187.2,487.3z M197,358.4l43-28.8v6.8
	l-25.2,33.9l-11.8-7.9l0-0.2l-0.2,0L197,358.4z M256.2,396.1c0,0.2-0.2,0.3-0.2,0.5V464h-34l-15.8-85l6.8,4.5
	c2.7,1.7,6.2,1.1,8.1-1.4l27.4-36.6l28.9,10.4C265.2,365.9,257.5,380.3,256.2,396.1L256.2,396.1z M233.4,319.7l-8.4,5.6v-9.1
	L233.4,319.7z M115.1,51.7c36.6-39.2,98.1-41.3,137.3-4.7c21.4,20,32.6,48.5,30.6,77.7l-2.3,32.8c-0.1,1-0.5,2-1.3,2.6l-0.7,0.7
	L266,108c-0.1-0.3-0.2-0.6-0.3-0.9c-7.1-16.4-22.9-27.4-40.8-28.3l-9.5-0.4c-2-0.1-4,0.9-5.2,2.5c-18.5,26-49.6,40-81.4,36.6
	l-16-1.7c-5.5-0.6-10.4,3.4-11,8.9c0,0.1,0,0.2,0,0.3L98.9,161c-2.1-0.7-4.5-1.6-6.6-2.5c-0.6-0.4-0.9-0.9-0.9-1.6l-2.2-32.2
	C87.2,97.8,96.6,71.4,115.1,51.7z M95,203.4v-0.1c-0.1-3-2.3-5.4-5.2-5.9c-10.4-1.9-17.2-11.8-15.4-22.1c0.1-0.3,0.1-0.6,0.2-0.9
	c0.9-4.1,3.9-7.4,7.8-8.8c1.2,1.6,2.8,2.9,4.6,3.8c0.2,0.1,0.3,0.2,0.5,0.2c16.1,6.4,17.7,5.4,19.9,4.1c1.7-1,2.8-2.8,2.9-4.8
	l3.3-40.9l14,1.5c34.9,3.7,69.2-11,90.5-38.9l6.3,0.3c13.1,0.6,24.7,8.6,30.1,20.5l15.1,62.3c0.8,3.2,4,5.2,7.2,4.4
	c1-0.2,1.9-0.7,2.7-1.4l8.2-7.7c1-1,1.9-2,2.6-3.2c3.6,1.5,6.3,4.7,7.2,8.6c0.4,1.5,0.5,3,0.5,4.5c0.1,9.1-6.4,16.9-15.3,18.5
	c-2.8,0.5-4.8,3-4.8,5.9v0.2c0,50.5-41,91.5-91.5,91.5S95,253.9,95,203.4L95,203.4z M186.2,306.9c9.1,0,18.1-1.2,26.8-3.6v30
	l-26.5,17.9L160,333.4v-29.9C168.5,305.8,177.4,307,186.2,306.9z M148,325.4l-8.6-5.7l8.6-3.5V325.4z M59,396.8
	c1-14.9,10.2-28.3,23-35.7c12.8,7.4,21,20.9,23,35.7V464H59V396.8z"/>
<linearGradient id="SVGID_3_" gradientUnits="userSpaceOnUse" x1="276.875" y1="409.125" x2="464.875" y2="409.125">
	<stop  offset="0" style="stop-color:#EC6333"/>
	<stop  offset="1" style="stop-color:#F19633"/>
</linearGradient>
<path class="st4" d="M370.9,315.1c-51.9,0-94,42.1-94,94s42.1,94,94,94s94-42.1,94-94C464.8,357.2,422.8,315.2,370.9,315.1z
	 M370.9,491.1c-45.3,0-82-36.7-82-82s36.7-82,82-82s82,36.7,82,82l0,0C452.8,454.4,416.1,491.1,370.9,491.1z"/>
</svg>
