<?xml version="1.0" encoding="utf-8"?>
<!-- Generator: Adobe Illustrator 23.0.4, SVG Export Plug-In . SVG Version: 6.00 Build 0)  -->
<svg version="1.1" id="Layer_1" xmlns="http://www.w3.org/2000/svg" xmlns:xlink="http://www.w3.org/1999/xlink" x="0px" y="0px"
	 viewBox="0 0 512 512" style="enable-background:new 0 0 512 512;" xml:space="preserve">
<style type="text/css">
	.st0{fill:#F3F3F3;}
	.st1{fill:url(#SVGID_1_);}
	.st2{fill:url(#SVGID_2_);}
	.st3{fill:url(#SVGID_3_);}
	.st4{fill:url(#SVGID_4_);}
	.st5{fill:url(#SVGID_5_);}
</style>
<title>king customers users</title>
<path class="st0" d="M124.2,335.3v-21.6c0-12.6,8.3-23.7,20.3-27.4c-2.7-0.8-5.5-1.2-8.3-1.2h-3.4c-15.8,0-28.6,12.8-28.6,28.6v21.6
	c0,15.8,12.8,28.6,28.6,28.6h3.4c2.8,0,5.6-0.4,8.3-1.2C132.5,359,124.2,347.9,124.2,335.3z"/>
<path class="st0" d="M240.6,316.8v-24.6c0-15.4,10.5-28.8,25.5-32.6c-2.6-0.7-5.3-1-8-1h-3.9c-18.5,0-33.5,15-33.5,33.5v24.6
	c0,18.5,15,33.5,33.5,33.5h3.9c2.7,0,5.4-0.3,8-1C251.1,345.6,240.6,332.2,240.6,316.8z"/>
<path class="st0" d="M367.1,335.3v-21.6c0-12.6,8.3-23.7,20.3-27.4c-2.7-0.8-5.5-1.2-8.3-1.2h-3.4c-15.8,0-28.6,12.8-28.6,28.6v21.6
	c0,15.8,12.8,28.6,28.6,28.6h3.4c2.8,0,5.6-0.4,8.3-1.2C375.4,359,367.1,347.9,367.1,335.3z"/>
<path class="st0" d="M109.6,394.9c-1.9-1.5-3.7-3.3-5.4-5.1c-17.6,2-31,16.9-31.1,34.7v34.9h20v-34.9
	C93.2,412.4,99.4,401.2,109.6,394.9z"/>
<path class="st0" d="M231.1,386.3c-3.4-2.3-6.6-5.1-9.3-8.3c-20.8,2.1-36.6,19.6-36.8,40.5V480h30v-61.4
	C215.1,405.9,221,394,231.1,386.3z"/>
<path class="st0" d="M358.2,398.7c-4.2-2.3-7.9-5.3-11-8.9c-4.9,0.5-9.7,2.1-13.9,4.6c3.9,7.5,5.9,15.8,5.9,24.2v40.7h23v-40.7
	C362.1,411.7,360.8,405,358.2,398.7z"/>
<linearGradient id="SVGID_1_" gradientUnits="userSpaceOnUse" x1="208.589" y1="304.4655" x2="303.575" y2="304.4655">
	<stop  offset="0" style="stop-color:#8108DA"/>
	<stop  offset="1" style="stop-color:#350ED8"/>
</linearGradient>
<path class="st1" d="M258,362.3c25.1,0,45.5-20.4,45.5-45.5v-24.6c0-25.1-20.4-45.5-45.5-45.5h-3.9c-25.1,0-45.5,20.4-45.5,45.5
	v24.6c0,25.1,20.4,45.5,45.5,45.5L258,362.3z M220.6,316.8v-24.6c0-18.5,15-33.5,33.5-33.5h3.9c18.5,0,33.5,15,33.5,33.5v24.6
	c0,18.5-15,33.5-33.5,33.5h-3.9C235.6,350.3,220.6,335.3,220.6,316.8z"/>
<linearGradient id="SVGID_2_" gradientUnits="userSpaceOnUse" x1="335.13" y1="324.5135" x2="419.768" y2="324.5135">
	<stop  offset="0" style="stop-color:#8108DA"/>
	<stop  offset="1" style="stop-color:#350ED8"/>
</linearGradient>
<path class="st2" d="M379.2,375.9c22.4,0,40.6-18.2,40.6-40.6v-21.6c0-22.4-18.2-40.6-40.6-40.6h-3.4c-22.4,0-40.6,18.2-40.6,40.6
	v21.6c0,22.4,18.2,40.6,40.6,40.6L379.2,375.9z M347.1,335.3v-21.6c0-15.8,12.8-28.6,28.6-28.6h3.4c15.8,0,28.6,12.8,28.6,28.6v21.6
	c0,15.8-12.8,28.6-28.6,28.6h-3.4C359.9,363.9,347.1,351.1,347.1,335.3z"/>
<linearGradient id="SVGID_3_" gradientUnits="userSpaceOnUse" x1="61.126" y1="428.9463" x2="450.874" y2="428.9463">
	<stop  offset="0" style="stop-color:#8108DA"/>
	<stop  offset="1" style="stop-color:#350ED8"/>
</linearGradient>
<path class="st3" d="M406.9,377.6c-3.2-0.2-4.8,1.7-6.2,3.5c-10.2,12.5-28.6,14.3-41.1,4.1c-1.9-1.5-3.5-3.3-5-5.2
	c-1.2-1.6-3-2.5-5-2.4c-8.2,0.2-16.2,2.5-23.2,6.8c-9.3-10.9-22.6-17.5-36.8-18.4c-3.1-0.2-4.8,1.8-6.3,3.7
	c-12,14.6-33.5,16.8-48.1,4.8c-2.2-1.8-4.1-3.8-5.8-6.1c-1.2-1.6-3-2.5-5-2.4c-13.7,0.3-26.8,6-36.4,15.9c-0.8,0.9-1.7,1.8-2.4,2.7
	c-6.5-4-13.9-6.4-21.6-6.8c-3.2-0.2-4.8,1.7-6.2,3.5c-10.2,12.5-28.6,14.3-41.1,4.1c-1.9-1.5-3.5-3.3-5-5.2c-1.2-1.6-3-2.5-5-2.4
	c-25.4,0.6-45.7,21.4-45.7,46.9v40.9c0,3.3,2.7,6,6,6h105.9V486c0,3.3,2.7,6,6,6h154.1c3.3,0,6-2.7,6-6v-14.7h105.8c3.3,0,6-2.7,6-6
	l0,0v-40.9C450.9,399.7,431.6,379.2,406.9,377.6z M73.1,459.3v-34.9c0.1-17.8,13.5-32.6,31.1-34.7c15,17.1,41,18.9,58.1,3.9
	c1.3-1.2,2.6-2.4,3.7-3.7c4.5,0.7,8.9,2.2,12.8,4.5c-3.9,7.5-5.9,15.7-5.8,24.2v40.7H73.1z M327.1,480H185.1v-61.4
	c0.1-20.9,16-38.4,36.8-40.5c16.6,19.4,45.8,21.6,65.1,5c1.7-1.5,3.4-3.1,4.8-4.8c20.2,2.7,35.3,19.9,35.3,40.3V480z M438.9,459.3
	h-99.8v-40.7c0-8.4-2-16.7-5.9-24.2c4.3-2.5,9-4.1,13.9-4.6c15,17.1,41,18.9,58.1,3.9c1.3-1.2,2.6-2.4,3.8-3.7
	c17.1,2.5,29.8,17.2,29.9,34.5V459.3z"/>
<linearGradient id="SVGID_4_" gradientUnits="userSpaceOnUse" x1="92.232" y1="324.5135" x2="176.87" y2="324.5135">
	<stop  offset="0" style="stop-color:#8108DA"/>
	<stop  offset="1" style="stop-color:#350ED8"/>
</linearGradient>
<path class="st4" d="M136.3,375.9c22.4,0,40.6-18.2,40.6-40.6v-21.6c0-22.4-18.2-40.6-40.6-40.6h-3.4c-22.4,0-40.6,18.2-40.6,40.6
	v21.6c0,22.4,18.2,40.6,40.6,40.6L136.3,375.9z M104.2,335.3v-21.6c0-15.8,12.8-28.6,28.6-28.6h3.4c15.8,0,28.6,12.8,28.6,28.6v21.6
	c0,15.8-12.8,28.6-28.6,28.6h-3.4C117,363.9,104.2,351.1,104.2,335.3z"/>
<linearGradient id="SVGID_5_" gradientUnits="userSpaceOnUse" x1="66.3705" y1="125.7948" x2="445.63" y2="125.7948">
	<stop  offset="0" style="stop-color:#8108DA"/>
	<stop  offset="1" style="stop-color:#350ED8"/>
</linearGradient>
<path class="st5" d="M410.5,52.9c-19.4,0-35.1,15.7-35.1,35.1c0,7.7,2.5,15.2,7.2,21.3l-54.2,41.5l-51.1-67.7
	c15.4-11.8,18.4-33.8,6.7-49.3c-11.8-15.4-33.8-18.4-49.3-6.7S216.3,61,228,76.4c1.8,2.3,3.8,4.4,6.1,6.2l-54.8,68.2L129,109.9
	c12-15.2,9.5-37.3-5.7-49.3S86,51,74,66.3s-9.5,37.3,5.7,49.3c6.2,4.9,13.9,7.6,21.8,7.6c0.7,0,1.5,0,2.2-0.1l16.8,64.8v37.7
	c0,3.3,2.7,6,6,6h259c3.3,0,6-2.7,6-6V188l16.8-64.8c0.7,0,1.5,0.1,2.2,0.1c19.4,0,35.1-15.7,35.1-35.1S429.9,52.9,410.5,52.9
	L410.5,52.9z M256,32c12.8,0,23.1,10.4,23.1,23.1c0,8.6-4.8,16.5-12.4,20.5c-0.6,0.2-1.1,0.4-1.6,0.8c-5.8,2.5-12.3,2.5-18,0.1
	c-0.1-0.1-0.2-0.2-0.3-0.2c-0.8-0.6-1.6-1-2.6-1.2c-11-6.5-14.7-20.7-8.2-31.7C240.2,36.3,247.8,32,256,32z M78.4,88
	c0-12.8,10.3-23.2,23.1-23.2s23.2,10.3,23.2,23.1c0,6.2-2.5,12.1-6.9,16.5c-1.3,0.5-2.4,1.4-3.1,2.6c-2.2,1.5-4.6,2.6-7.2,3.3
	c-0.5,0.1-1,0.2-1.4,0.3c-12.5,2.5-24.7-5.6-27.3-18.1C78.5,91.1,78.4,89.6,78.4,88z M132.5,219.6v-26.4h247v26.4H132.5z
	 M380.8,181.2H131.1l-15.7-60.9c1.6-0.7,3.1-1.5,4.6-2.4l56.5,46c1.1,0.9,2.4,1.3,3.8,1.3c0.2,0,0.4,0,0.6,0c1.6-0.2,3-1,4.1-2.2
	l59.9-74.6c7,2.4,14.6,2.5,21.7,0.2l55.9,74.2c2,2.6,5.8,3.2,8.4,1.2c0,0,0,0,0,0l60.6-46.4c1.6,1.1,3.4,2,5.1,2.8L380.8,181.2z
	 M410.5,111.2c-1.5,0-3.1-0.2-4.6-0.5c-0.2-0.1-0.4-0.1-0.6-0.2c-0.3-0.1-0.5-0.1-0.8-0.1c-12.3-3.3-19.7-16-16.4-28.3
	s16-19.7,28.3-16.4c12.3,3.3,19.7,16,16.4,28.3C430.1,104.2,421,111.2,410.5,111.2L410.5,111.2z"/>
</svg>
