<?xml version="1.0" encoding="utf-8"?>
<!-- Generator: Adobe Illustrator 23.0.4, SVG Export Plug-In . SVG Version: 6.00 Build 0)  -->
<svg version="1.1" id="Layer_1" xmlns="http://www.w3.org/2000/svg" xmlns:xlink="http://www.w3.org/1999/xlink" x="0px" y="0px"
	 viewBox="0 0 565 565" style="enable-background:new 0 0 565 565;" xml:space="preserve">
<style type="text/css">
	.st0{fill:#F3F3F3;}
	.st1{fill:url(#SVGID_1_);}
	.st2{fill:url(#SVGID_2_);}
	.st3{fill:url(#SVGID_3_);}
	.st4{fill:url(#SVGID_4_);}
	.st5{fill:url(#SVGID_5_);}
	.st6{fill:url(#SVGID_6_);}
	.st7{fill:url(#SVGID_7_);}
</style>
<path class="st0" d="M537.9,464.6H125.7c-32.4,0-58.7-26.3-58.7-58.7V56c0-2.7,0.2-5.5,0.6-8.2C38.6,51.9,17,76.7,17,105.9v349.9
	c0,32.4,26.3,58.7,58.7,58.7H488c29.3,0,54-21.6,58.1-50.5C543.4,464.4,540.7,464.6,537.9,464.6z"/>
<linearGradient id="SVGID_1_" gradientUnits="userSpaceOnUse" x1="16.99" y1="280.8818" x2="546.6775" y2="280.8818">
	<stop  offset="0" style="stop-color:#EC6333"/>
	<stop  offset="1" style="stop-color:#F19633"/>
</linearGradient>
<path class="st1" d="M546.7,105.9v349.9c0,32.4-26.3,58.7-58.7,58.7H75.7c-32.4,0-58.7-26.3-58.7-58.7V105.9
	c0-32.4,26.3-58.7,58.7-58.7H488C520.4,47.3,546.6,73.5,546.7,105.9z M529.2,455.8V187.3H34.5v268.6c0,22.8,18.5,41.2,41.2,41.2H488
	C510.7,497,529.2,478.6,529.2,455.8z M529.2,169.8v-63.8c0-22.8-18.5-41.2-41.2-41.2H75.7c-22.8,0-41.2,18.5-41.2,41.2v63.8H529.2z"
	/>
<g>
	<linearGradient id="SVGID_2_" gradientUnits="userSpaceOnUse" x1="328.7865" y1="330.3836" x2="403.0161" y2="330.3836">
		<stop  offset="0" style="stop-color:#EC6333"/>
		<stop  offset="1" style="stop-color:#F19633"/>
	</linearGradient>
	<path class="st2" d="M399.9,323.6l-56.6-48.2c-3.7-3-9.1-2.5-12.2,1.1c-3.1,3.6-2.7,9,0.8,12.2l48.8,41.5L332,371.8
		c-2.5,2-3.7,5.2-3.1,8.3c0.5,3.1,2.7,5.7,5.7,6.7c3,1,6.3,0.4,8.7-1.7l56.6-48.2c2-1.7,3.1-4.1,3.1-6.7
		C403,327.7,401.9,325.3,399.9,323.6z"/>
	<linearGradient id="SVGID_3_" gradientUnits="userSpaceOnUse" x1="253.0476" y1="330.8532" x2="305.8036" y2="330.8532">
		<stop  offset="0" style="stop-color:#EC6333"/>
		<stop  offset="1" style="stop-color:#F19633"/>
	</linearGradient>
	<path class="st3" d="M298.9,238.6c-4.7-1-9.4,2-10.4,6.8l-35.3,167.5c-1,4.7,2,9.4,6.7,10.4c0.6,0.1,1.2,0.2,1.8,0.2
		c4.1,0,7.7-2.9,8.6-6.9l35.3-167.4C306.6,244.2,303.6,239.6,298.9,238.6z"/>
	<linearGradient id="SVGID_4_" gradientUnits="userSpaceOnUse" x1="223.7234" y1="117.9935" x2="279.1088" y2="117.9935">
		<stop  offset="0" style="stop-color:#EC6333"/>
		<stop  offset="1" style="stop-color:#F19633"/>
	</linearGradient>
	<path class="st4" d="M251.4,145.7L251.4,145.7c15.3,0,27.7-12.3,27.8-27.6V118c0-15.2-12.3-27.6-27.6-27.7h-0.1
		c-15.3,0-27.7,12.3-27.7,27.6C223.7,133.2,236.1,145.6,251.4,145.7z M251.4,107.8L251.4,107.8c5.6,0,10.2,4.6,10.2,10.2
		c0,5.6-4.6,10.2-10.2,10.2h0c-5.6,0-10.2-4.6-10.2-10.2C241.2,112.4,245.8,107.8,251.4,107.8z"/>
	<linearGradient id="SVGID_5_" gradientUnits="userSpaceOnUse" x1="160.6552" y1="330.2558" x2="234.5804" y2="330.2558">
		<stop  offset="0" style="stop-color:#EC6333"/>
		<stop  offset="1" style="stop-color:#F19633"/>
	</linearGradient>
	<path class="st5" d="M160.7,330.3c0,2.6,1.1,5,3.1,6.7l56.6,48.2c3.7,3,9.1,2.5,12.2-1.1c3.1-3.6,2.7-9-0.8-12.2l-48.8-41.5
		l48.8-41.5c3.6-3.2,3.9-8.6,0.8-12.2c-3.1-3.6-8.5-4.1-12.2-1.1l-56.6,48.2C161.8,325.3,160.7,327.7,160.7,330.3z"/>
	<linearGradient id="SVGID_6_" gradientUnits="userSpaceOnUse" x1="138.7306" y1="117.73" x2="194.073" y2="117.73">
		<stop  offset="0" style="stop-color:#EC6333"/>
		<stop  offset="1" style="stop-color:#F19633"/>
	</linearGradient>
	<path class="st6" d="M138.7,117.6c0,15.3,12.3,27.7,27.6,27.8h0.1c15.2,0,27.6-12.3,27.7-27.6v-0.1c0-15.3-12.3-27.6-27.6-27.7
		h-0.1C151.2,90.1,138.8,102.4,138.7,117.6z M159.2,110.5c1.9-1.9,4.5-3,7.2-3h0c5.6,0,10.2,4.6,10.2,10.2c0,5.6-4.6,10.2-10.2,10.2
		h0c-4.1,0-7.8-2.5-9.4-6.3C155.4,117.8,156.3,113.4,159.2,110.5z"/>
	<linearGradient id="SVGID_7_" gradientUnits="userSpaceOnUse" x1="53.7025" y1="117.4625" x2="109.0997" y2="117.4625">
		<stop  offset="0" style="stop-color:#EC6333"/>
		<stop  offset="1" style="stop-color:#F19633"/>
	</linearGradient>
	<path class="st7" d="M81.5,89.8c-15.3-0.1-27.7,12.3-27.8,27.6c-0.1,15.3,12.3,27.7,27.6,27.8h0.1c15.3,0,27.7-12.3,27.7-27.6
		C109.1,102.2,96.8,89.8,81.5,89.8z M81.4,127.6L81.4,127.6c-5.7,0-10.2-4.6-10.2-10.2c0-5.6,4.6-10.2,10.2-10.2h0
		c5.6,0,10.2,4.6,10.2,10.2C91.6,123.1,87,127.7,81.4,127.6z"/>
</g>
</svg>
