<svg xmlns="http://www.w3.org/2000/svg" width="59" height="54" fill="none" viewBox="0 0 59 54">
    <path fill="#fff" d="M-948.981-932.794h1367.01v3747.771H-948.98z"/>
    <path fill="#fff" d="M8.53 34.602c-.332.61-.203 1.347.318 1.829l.419.387a71.65 71.65 0 0 1 4.328-4.342c.121-.112.245-.166.367-.269l-2.693-2.489c-1.566 2.617-2.479 4.405-2.74 4.884zM23.278 41.425a76.021 76.021 0 0 1-4.69 4.008l.567.524a1.817 1.817 0 0 0 1.993.288c.887-.422 2.281-1.029 5.241-2.552l-2.82-2.606c-.111.112-.17.227-.29.338zM22.366 33.321c-1.237-1.143-4.716-.118-6.35 1.392-5.467 5.053-7.936 8.635-9.045 10.75-.318.606-.185 1.332.33 1.808.516.477 1.303.599 1.959.305 2.237-1.004 6.066-3.276 11.598-8.388 1.796-1.662 2.683-4.78 1.509-5.865l-.001-.002zM5.343 21.063L.5 25.538c-.547.506-.66 1.289-.272 1.91.379.611 1.172.923 1.926.737 2.616-.649 4.919-.923 6.47-.555 2.205-3.624 4.575-6.96 7.085-9.991-1.452-.86-6.25-.381-10.367 3.424zM28.973 53.83c.66.308 1.458.19 1.98-.294l4.842-4.474c3.748-3.465 4.408-7.936 3.557-9.354-3.657 2.547-7.361 4.698-10.818 6.5.239 1.244.08 2.451-.484 5.978-.11.683.271 1.343.923 1.644zM33.984 15.87c-2.002 1.85-2.002 4.86 0 6.711 2.002 1.85 5.26 1.85 7.262 0s2.002-4.86 0-6.711-5.26-1.851-7.262 0zM58.326 1.543c-.061-.782-.735-1.4-1.579-1.46-4.204-.292-8.392.186-12.496 1.346.309 2.607 1.767 5.427 4.257 7.729 2.52 2.328 5.655 3.676 8.525 3.928 1.106-3.58 1.63-7.416 1.293-11.543z"/>
    <path fill="#fff" d="M46.088 11.395c-2.849-2.633-4.588-5.79-5.146-8.864-10.279 3.896-20.119 12.404-27.894 24.357l3.863 3.57c2.64-.99 5.843-1.252 7.876.626 2.035 1.881 1.746 4.841.675 7.277l3.99 3.688c9.95-5.542 21.535-14.275 26.461-25.892-3.407-.476-6.93-2.087-9.825-4.762zm-2.422 13.424c-3.336 3.084-8.766 3.084-12.103 0-3.337-3.084-3.337-8.103 0-11.187 3.337-3.084 8.767-3.084 12.104 0 3.337 3.084 3.337 8.103 0 11.187z"/>
</svg>
