<svg xmlns="http://www.w3.org/2000/svg" width="65" height="49" fill="none" viewBox="0 0 65 49">
    <path fill="#fff" d="M36.643 36.1c-1.156.655-2.636 1.017-4.169 1.017-1.532 0-3.012-.361-4.168-1.017L9.433 25.402s-1.703-.965-1.703 1.222v10.682C7.73 42.933 18.808 49 32.474 49s24.744-6.066 24.744-11.694v-.752V26.02c0-1.754-1.21-.897-1.21-.897L36.642 36.1z"/>
    <path fill="#fff" d="M63.861 16.893c1.45-.822 1.45-2.167 0-2.989L35.111.616c-1.45-.821-3.823-.821-5.273 0L1.088 13.904c-1.45.822-1.45 2.167 0 2.99l28.75 16.296c1.45.822 3.823.822 5.273 0M62.672 41.049V23.05s.014-.852-.533-.57c-.44.225-1.516.78-1.895 1.084-.438.352-.339 1.141-.339 1.141V41.05c0 .232-.216.342-.319.398-.993.54-1.662 1.537-1.662 2.68 0 1.717 1.507 3.11 3.365 3.11 1.858 0 3.364-1.393 3.364-3.11 0-1.147-.673-2.147-1.673-2.686-.1-.053-.308-.16-.308-.392z"/>
</svg>
